<svg width="22" height="20" viewBox="0 0 22 20" fill="none" xmlns="http://www.w3.org/2000/svg">
<path d="M10.3136 0.859824C10.6134 -0.0604526 11.9153 -0.0604517 12.2152 0.859825L13.9663 6.23422C14.1004 6.64585 14.4841 6.92443 14.9171 6.92443H20.5778C21.5472 6.92443 21.9495 8.16546 21.1645 8.73422L16.5897 12.0489C16.2382 12.3035 16.0911 12.7558 16.2256 13.1684L17.9741 18.5351C18.2742 19.4559 17.2209 20.2229 16.4366 19.6547L11.8511 16.3323C11.501 16.0787 11.0277 16.0787 10.6776 16.3323L6.09209 19.6547C5.30783 20.2229 4.25454 19.4559 4.55457 18.5351L6.30314 13.1684C6.43759 12.7558 6.29051 12.3035 5.93905 12.0489L1.36418 8.73422C0.579174 8.16546 0.981505 6.92443 1.9509 6.92443H7.61166C8.04458 6.92443 8.42834 6.64585 8.56246 6.23422L10.3136 0.859824Z" fill="#E5E5E5"/>
</svg>
