<svg width="22" height="20" viewBox="0 0 22 20" fill="none" xmlns="http://www.w3.org/2000/svg">
<path d="M10.1193 0.859824C10.4192 -0.0604526 11.7211 -0.0604517 12.0209 0.859825L13.772 6.23422C13.9062 6.64585 14.2899 6.92443 14.7228 6.92443H20.3836C21.353 6.92443 21.7553 8.16546 20.9703 8.73422L16.3954 12.0489C16.044 12.3035 15.8969 12.7558 16.0314 13.1684L17.7799 18.5351C18.08 19.4559 17.0267 20.2229 16.2424 19.6547L11.6569 16.3323C11.3068 16.0787 10.8335 16.0787 10.4834 16.3323L5.89788 19.6547C5.11362 20.2229 4.06033 19.4559 4.36035 18.5351L6.10893 13.1684C6.24338 12.7558 6.0963 12.3035 5.74484 12.0489L1.16997 8.73422C0.38496 8.16546 0.787291 6.92443 1.75669 6.92443H7.41744C7.85037 6.92443 8.23413 6.64585 8.36825 6.23422L10.1193 0.859824Z" fill="#070707"/>
</svg>
